<svg width="24" height="24" viewBox="0 0 24 24" fill="none" xmlns="http://www.w3.org/2000/svg">
<path fill-rule="evenodd" clip-rule="evenodd" d="M12.0017 0C9.15171 0.000173986 6.39479 1.04004 4.22426 2.93352C2.05373 4.82699 0.61123 7.45051 0.154889 10.3346C-0.301452 13.2187 0.258144 16.1752 1.73354 18.675C3.20894 21.1748 5.50386 23.0548 8.20764 23.9786C8.80742 24.0923 9.02762 23.7115 9.02762 23.3865C9.02762 23.0933 9.01649 22.1233 9.01132 21.0958C5.67259 21.8403 4.96807 19.6441 4.96807 19.6441C4.42215 18.2222 3.63555 17.8439 3.63555 17.8439C2.54669 17.0802 3.71763 17.0959 3.71763 17.0959C4.92276 17.1827 5.55732 18.364 5.55732 18.364C6.6277 20.2448 8.36484 19.7012 9.04968 19.3868C9.15739 18.5922 9.46841 18.0486 9.81162 17.7414C7.146 17.4305 4.34384 16.3763 4.34384 11.6611C4.32706 10.4383 4.76983 9.25577 5.58037 8.35858C5.45577 8.04848 5.04498 6.79709 5.69663 5.10235C5.69663 5.10235 6.70441 4.77188 8.99781 6.36373C10.965 5.81144 13.0409 5.81144 15.0081 6.36373C17.2987 4.77188 18.3051 5.10235 18.3051 5.10235C18.9584 6.79709 18.5474 8.04848 18.4228 8.35858C19.2336 9.25549 19.676 10.4383 19.6579 11.6611C19.6579 16.3867 16.8504 17.427 14.178 17.7316C14.6085 18.1136 14.9928 18.8622 14.9928 20.0101C14.9928 21.6563 14.9789 22.9813 14.9789 23.3865C14.9789 23.7141 15.1949 24.0978 15.8033 23.9774C18.5049 23.0511 20.7972 21.17 22.2704 18.6703C23.7435 16.1706 24.3015 13.2152 23.8445 10.3325C23.3876 7.44978 21.9455 4.82764 19.776 2.93482C17.6066 1.042 14.8512 0.00188315 12.0025 0.000410372L12.0017 0Z" fill="white"/>
</svg>
