<svg width="25" height="24" viewBox="0 0 25 24" fill="none" xmlns="http://www.w3.org/2000/svg">
<path fill-rule="evenodd" clip-rule="evenodd" d="M12.9991 0C10.1493 0.000173987 7.39267 1.04005 5.22233 2.93354C3.05199 4.82704 1.60962 7.45058 1.15332 10.3347C0.697018 13.2188 1.25656 16.1754 2.73183 18.6752C4.2071 21.175 6.50182 23.055 9.20535 23.9788C9.80508 24.0925 10.0253 23.7117 10.0253 23.3867C10.0253 23.0935 10.0141 22.1235 10.009 21.096C6.67052 21.8405 5.96607 19.6443 5.96607 19.6443C5.4202 18.2224 4.63367 17.844 4.63367 17.844C3.54491 17.0804 4.71574 17.0961 4.71574 17.0961C5.92076 17.1829 6.55527 18.3642 6.55527 18.3642C7.62555 20.245 9.36254 19.7014 10.0473 19.387C10.155 18.5924 10.466 18.0488 10.8092 17.7415C8.1438 17.4306 5.3419 16.3754 5.3419 11.661C5.32528 10.4382 5.76814 9.25575 6.57871 8.35866C6.45412 8.04856 6.04337 6.79736 6.69496 5.1024C6.69496 5.1024 7.70266 4.77192 9.99585 6.36379C11.9629 5.81151 14.0386 5.81151 16.0056 6.36379C18.296 4.77192 19.3023 5.1024 19.3023 5.1024C19.9555 6.79736 19.5446 8.04856 19.42 8.35866C20.2307 9.25551 20.6731 10.4383 20.655 11.661C20.655 16.3868 17.8477 17.427 15.1756 17.7326C15.606 18.1146 15.9903 18.8632 15.9903 20.0111C15.9903 21.6573 15.9764 22.9823 15.9764 23.3875C15.9764 23.7152 16.1924 24.0988 16.8007 23.9784C19.5031 23.0528 21.7962 21.1717 23.27 18.6715C24.7437 16.1713 25.3019 13.2152 24.8447 10.3317C24.3876 7.44822 22.9449 4.82553 20.7747 2.93269C18.6044 1.03985 15.8483 0.000315782 12.9991 0V0Z" fill="#0F0C0D"/>
<path d="M5.54505 17.6653C5.51862 17.7265 5.42582 17.745 5.33938 17.703C5.25294 17.6611 5.20346 17.5794 5.23167 17.5182C5.25989 17.4571 5.3509 17.4367 5.43834 17.4797C5.52578 17.5227 5.57525 17.6042 5.54505 17.6653Z" fill="#0F0C0D"/>
<path d="M6.03111 18.2214C5.97387 18.2756 5.862 18.2503 5.78609 18.1645C5.7495 18.1346 5.72547 18.0914 5.71893 18.0438C5.71239 17.9963 5.72383 17.948 5.75091 17.9088C5.81053 17.8544 5.91843 17.8799 5.99713 17.9657C6.07582 18.0515 6.09092 18.1662 6.03111 18.2214V18.2214Z" fill="#0F0C0D"/>
<path d="M6.50425 18.9298C6.43073 18.9824 6.31051 18.9333 6.23619 18.8238C6.16187 18.7144 6.16266 18.583 6.23777 18.5305C6.31289 18.4779 6.43072 18.5254 6.50604 18.6338C6.58135 18.7421 6.57937 18.8764 6.50425 18.9298Z" fill="#0F0C0D"/>
<path d="M7.15246 19.6144C7.08668 19.6887 6.94659 19.6686 6.84405 19.5671C6.79607 19.5332 6.76237 19.482 6.74973 19.4236C6.73709 19.3653 6.74643 19.3043 6.77589 19.2527C6.84246 19.1784 6.98335 19.1993 7.08668 19.3C7.19002 19.4006 7.2226 19.5406 7.15246 19.6144Z" fill="#0F0C0D"/>
<path d="M8.04668 20.0121C8.01767 20.1083 7.88274 20.1521 7.74682 20.1111C7.61089 20.0702 7.52227 19.9561 7.54969 19.8589C7.57711 19.7617 7.71343 19.7162 7.85035 19.7601C7.98726 19.8039 8.0749 19.9139 8.04668 20.0121V20.0121Z" fill="#0F0C0D"/>
<path d="M9.02875 20.0856C9.03213 20.1875 8.91687 20.2713 8.77419 20.2731C8.63151 20.2749 8.51467 20.1942 8.51308 20.0944C8.51149 19.9946 8.62575 19.9088 8.76922 19.9061C8.9127 19.9035 9.02875 19.985 9.02875 20.0856V20.0856Z" fill="#0F0C0D"/>
<path d="M9.94264 19.9263C9.95973 20.0251 9.86057 20.1268 9.71888 20.1539C9.5772 20.181 9.45061 20.1189 9.43293 20.0208C9.41564 19.919 9.51659 19.8171 9.65569 19.7914C9.79479 19.7658 9.92455 19.8257 9.94264 19.9263Z" fill="#0F0C0D"/>
</svg>
