<svg width="24" height="24" viewBox="0 0 24 24" fill="none" xmlns="http://www.w3.org/2000/svg">
<path fill-rule="evenodd" clip-rule="evenodd" d="M4.13856 4.2077C4.91671 4.81417 5.20862 4.7679 6.66988 4.67437L20.4456 3.88088C20.7378 3.88088 20.4948 3.60127 20.3974 3.55481L18.1095 1.9682C17.6712 1.64171 17.0871 1.26782 15.9677 1.36135L2.62868 2.29465C2.1422 2.34092 2.04504 2.57425 2.23876 2.76127L4.13856 4.2077ZM4.96563 7.28743V21.1918C4.96563 21.939 5.3549 22.2186 6.23105 22.1724L21.3706 21.332C22.2472 21.2858 22.3448 20.7718 22.3448 20.1648V6.35371C22.3448 5.74766 22.1018 5.42084 21.5652 5.46749L5.74422 6.35371C5.16034 6.40078 4.96558 6.68095 4.96558 7.28743H4.96563ZM19.9113 8.03328C20.0084 8.45364 19.9113 8.87361 19.4723 8.92087L18.7429 9.0603V19.3254C18.1095 19.6519 17.5255 19.8386 17.0388 19.8386C16.2597 19.8386 16.0645 19.6051 15.4809 18.9056L10.7094 11.72V18.6723L12.2193 18.9991C12.2193 18.9991 12.2193 19.8386 11.0011 19.8386L7.64293 20.0255C7.54538 19.8386 7.64293 19.3724 7.98358 19.279L8.85992 19.046V9.85374L7.64318 9.76021C7.54558 9.33986 7.78862 8.73376 8.47065 8.68674L12.0732 8.45378L17.0388 15.7329V9.29359L15.7728 9.15421C15.6756 8.64032 16.0645 8.26718 16.5514 8.22091L19.9113 8.03328ZM1.5087 1.03491L15.3835 0.0547288C17.0873 -0.0854521 17.5257 0.00845816 18.5966 0.754689L23.0256 3.74089C23.7564 4.2544 24 4.3942 24 4.95398V21.332C24 22.3585 23.6102 22.9655 22.2474 23.0584L6.13463 23.9918C5.11161 24.0386 4.62474 23.8987 4.089 23.2451L0.827417 19.1856C0.243042 18.4383 0 17.8793 0 17.2253V2.66741C0 1.82802 0.389911 1.12783 1.5087 1.03491V1.03491Z" fill="white"/>
</svg>
